<svg xmlns="http://www.w3.org/2000/svg" width="48" height="48" viewBox="0 0 48 48" fill="none"><circle cx="24" cy="24" r="20" fill="#FEF3C7"/><path d="M24 8C17.4 8 12 13.4 12 20C12 24.4 14.2 28.2 17.6 30.2C18.6 31 19 32 19 33V36C19 37.1 19.9 38 21 38H27C28.1 38 29 37.1 29 36V33C29 32 29.4 31 30.4 30.2C33.8 28.2 36 24.4 36 20C36 13.4 30.6 8 24 8ZM27 36H21V34H27V36ZM27 32H21V30H27V32ZM29.6 28C28.8 28.6 28.1 29.4 27.8 30H20.2C19.8 29.4 19.2 28.6 18.4 28C15.8 26.4 14 23.4 14 20C14 14.5 18.5 10 24 10C29.5 10 34 14.5 34 20C34 23.4 32.2 26.4 29.6 28Z" fill="#F59E0B"/></svg>
