<svg xmlns="http://www.w3.org/2000/svg" width="48" height="48" viewBox="0 0 48 48" fill="none"><path d="M12 24C14.2091 24 16 22.2091 16 20C16 17.7909 14.2091 16 12 16C9.79086 16 8 17.7909 8 20C8 22.2091 9.79086 24 12 24Z" fill="#EF4444"/><path d="M24 16C26.2091 16 28 14.2091 28 12C28 9.79086 26.2091 8 24 8C21.7909 8 20 9.79086 20 12C20 14.2091 21.7909 16 24 16Z" fill="#10B981"/><path d="M36 40C38.2091 40 40 38.2091 40 36C40 33.7909 38.2091 32 36 32C33.7909 32 32 33.7909 32 36C32 38.2091 33.7909 40 36 40Z" fill="#3B82F6"/><path d="M12 12V8" stroke="#6B7280" stroke-width="2" stroke-linecap="round"/><path d="M12 40V24" stroke="#6B7280" stroke-width="2" stroke-linecap="round"/><path d="M24 40V16" stroke="#6B7280" stroke-width="2" stroke-linecap="round"/><path d="M36 8V32" stroke="#6B7280" stroke-width="2" stroke-linecap="round"/></svg>
