<svg xmlns="http://www.w3.org/2000/svg" width="500" height="400" viewBox="0 0 500 400" fill="none"><rect x="100" y="50" width="300" height="200" rx="10" fill="#4F46E5" stroke="#2D3748" stroke-width="3"/><rect x="110" y="60" width="280" height="170" rx="3" fill="#1E293B"/><rect x="120" y="70" width="80" height="45" rx="2" fill="#3B82F6"/><rect x="210" y="70" width="80" height="45" rx="2" fill="#EC4899"/><rect x="300" y="70" width="80" height="45" rx="2" fill="#10B981"/><rect x="120" y="125" width="80" height="45" rx="2" fill="#F59E0B"/><rect x="210" y="125" width="80" height="45" rx="2" fill="#6366F1"/><rect x="300" y="125" width="80" height="45" rx="2" fill="#EF4444"/><path d="M220 250L280 250L270 300L230 300L220 250Z" fill="#2D3748"/><rect x="210" y="300" width="80" height="10" rx="2" fill="#2D3748"/><circle cx="250" cy="200" r="20" fill="#4F46E5"/><text x="237" y="205" font-family="Arial" font-size="16" font-weight="bold" fill="white">AI</text><path d="M180 180C190 160 220 150 250 150C280 150 310 160 320 180" stroke="#EC4899" stroke-width="2" stroke-dasharray="5,5"/><path d="M160 200C175 170 215 155 250 155C285 155 325 170 340 200" stroke="#3B82F6" stroke-width="2" stroke-dasharray="5,5"/><path d="M140 220C160 180 210 160 250 160C290 160 340 180 360 220" stroke="#10B981" stroke-width="2" stroke-dasharray="5,5"/></svg>
